<?xml version="1.0" encoding="iso-8859-1"?>
<!-- Generator: Adobe Illustrator 19.0.0, SVG Export Plug-In . SVG Version: 6.00 Build 0)  -->
<svg version="1.1" id="Layer_1" xmlns="http://www.w3.org/2000/svg" xmlns:xlink="http://www.w3.org/1999/xlink" x="0px" y="0px"
	 viewBox="0 0 512 512" style="enable-background:new 0 0 512 512;" xml:space="preserve">
<g>
	<path style="fill:#707287;" d="M137.909,114.051c-34.153,0-61.839,27.686-61.839,61.839l0,0c0,34.153,27.686,61.839,61.839,61.839
		h17.194V114.051C155.103,114.051,137.909,114.051,137.909,114.051z"/>
	<path style="fill:#707287;" d="M374.091,114.051c34.153,0,61.839,27.686,61.839,61.839l0,0c0,34.153-27.686,61.839-61.839,61.839
		h-17.194V114.051C356.897,114.051,374.091,114.051,374.091,114.051z"/>
</g>
<path style="fill:#C7CFE2;" d="M369.047,465.793l-24.249-62.708l-0.002,0.005c-7.133-4.234-14.708-7.799-22.654-10.582l0,0
	c-9.508-3.332-19.538-5.549-29.928-6.524v-65.916h-72.429v65.917c-9.958,0.933-19.586,2.999-28.738,6.103l-1.202,0.417
	c-7.942,2.783-15.515,6.347-22.644,10.58l-24.249,62.708L167.2,512h177.598v-0.001L369.047,465.793z"/>
<path style="fill:#AFB6C7;" d="M219.786,377.613c11.634,2.735,23.757,4.187,36.215,4.187c12.457,0,24.58-1.452,36.214-4.187v-57.544
	h-72.429V377.613z"/>
<path style="fill:#C7CFE2;" d="M255.999,0L255.999,0c-70.793,0-128.182,57.389-128.182,128.182v95.418
	c0,70.792,57.389,128.182,128.182,128.182l0,0c70.792,0,128.182-57.389,128.182-128.182v-95.418C384.181,57.389,326.793,0,255.999,0
	z"/>
<path style="fill:#5B5D6E;" d="M348.158,114.051v95.418c0,50.816-41.342,92.159-92.159,92.159s-92.159-41.342-92.159-92.159v-95.418
	H348.158z"/>
<path style="fill:#74D6FF;" d="M255.999,255.283c-100.333-42.662-65.699-140.727,0-89.201
	C321.699,114.555,356.334,212.622,255.999,255.283z"/>
<g>
	<circle style="fill:#707287;" cx="332.155" cy="80.691" r="9.341"/>
	<circle style="fill:#707287;" cx="296.133" cy="80.691" r="9.341"/>
	<path style="fill:#707287;" d="M167.202,403.086c-37.15,22.059-62.059,62.572-62.059,108.913l0,0h62.059V403.086z"/>
	<path style="fill:#707287;" d="M344.798,403.086c37.15,22.059,62.059,62.572,62.059,108.913l0,0h-62.059V403.086z"/>
</g>
<g>
</g>
<g>
</g>
<g>
</g>
<g>
</g>
<g>
</g>
<g>
</g>
<g>
</g>
<g>
</g>
<g>
</g>
<g>
</g>
<g>
</g>
<g>
</g>
<g>
</g>
<g>
</g>
<g>
</g>
</svg>
